<?xml version="1.0" standalone="no"?>
<!DOCTYPE svg PUBLIC "-//W3C//DTD SVG 20010904//EN"
 "http://www.w3.org/TR/2001/REC-SVG-20010904/DTD/svg10.dtd">
<svg version="1.0" xmlns="http://www.w3.org/2000/svg"
 width="260.000000pt" height="260.000000pt" viewBox="0 0 260.000000 260.000000"
 preserveAspectRatio="xMidYMid meet">
<metadata>
Created by potrace 1.14, written by Peter Selinger 2001-2017
</metadata>
<g transform="translate(0.000000,260.000000) scale(0.100000,-0.100000)"
fill="#000000" stroke="none">
<path d="M452 2580 c-125 -33 -235 -103 -315 -200 -54 -65 -113 -193 -127
-275 -8 -50 -11 -289 -8 -845 3 -770 3 -775 25 -840 64 -188 212 -334 398
-393 70 -22 71 -22 875 -22 802 0 805 0 875 22 189 60 338 209 398 398 22 70
22 71 22 875 0 804 0 805 -22 875 -59 186 -205 334 -393 398 -65 22 -68 22
-860 24 -757 2 -799 1 -868 -17z m1033 -485 c197 -54 353 -185 444 -370 68
-138 85 -222 85 -425 -1 -199 -15 -271 -79 -402 -105 -216 -278 -351 -512
-400 -114 -23 -275 -20 -378 8 -142 38 -272 119 -358 222 -41 49 -133 210
-124 218 1 2 66 25 144 53 l142 49 30 -63 c58 -125 164 -204 304 -227 241 -40
457 128 502 390 l7 42 -301 0 -301 0 0 130 0 130 293 0 c162 0 296 3 300 6 7
8 -19 96 -48 160 -40 90 -126 169 -225 208 -66 25 -202 32 -273 13 -113 -30
-206 -106 -259 -214 -17 -35 -33 -63 -35 -63 -5 0 -210 72 -260 91 l-23 8 25
57 c89 201 273 343 510 394 63 14 321 4 390 -15z"/>
</g>
</svg>
